<?xml version="1.0" encoding="UTF-8" ?>
<!DOCTYPE svg PUBLIC "-//W3C//DTD SVG 1.1//EN" "http://www.w3.org/Graphics/SVG/1.1/DTD/svg11.dtd">
<svg width="128pt" height="128pt" viewBox="0 0 128 128" version="1.1" xmlns="http://www.w3.org/2000/svg">
<path fill="#383838" d=" M 12.04 34.21 C 29.33 24.20 46.54 14.04 63.91 4.17 C 80.46 13.56 96.90 23.14 113.44 32.55 C 114.29 33.25 115.99 33.70 115.74 35.10 C 115.64 54.66 115.93 74.22 115.96 93.78 C 98.65 103.77 81.45 113.94 64.08 123.81 C 46.80 113.81 29.35 104.10 12.22 93.86 C 12.42 73.97 12.02 54.09 12.04 34.21 Z" />
<path fill="#39b4af" d=" M 46.97 28.93 C 52.68 25.78 58.10 22.10 63.99 19.27 C 74.73 25.33 85.53 31.32 96.05 37.76 C 85.46 44.07 74.86 50.41 64.02 56.28 C 53.16 50.45 42.42 44.34 31.93 37.88 C 36.72 34.52 41.97 31.93 46.97 28.93 Z" />
<path fill="#fedf46" d=" M 25.23 49.27 C 35.98 55.47 46.90 61.40 57.46 67.93 C 57.48 80.19 57.64 92.46 57.36 104.72 C 46.49 99.05 36.05 92.59 25.36 86.59 C 25.10 74.15 25.35 61.71 25.23 49.27 Z" />
<path fill="#ee3145" d=" M 74.36 65.38 C 83.92 60.11 93.15 54.28 102.76 49.13 C 102.59 61.60 102.98 74.07 102.57 86.53 C 91.95 92.55 81.65 99.18 70.71 104.61 C 70.34 93.07 70.57 81.52 70.56 69.98 C 70.13 67.47 72.61 66.42 74.36 65.38 Z" />
</svg>
